<?xml version="1.0" encoding="UTF-8"?>
<svg width="1280px" height="640px" viewBox="0 0 1280 640" version="1.1" xmlns="http://www.w3.org/2000/svg" xmlns:xlink="http://www.w3.org/1999/xlink">
    <!-- Generator: Sketch 45 (43475) - http://www.bohemiancoding.com/sketch -->
    <title>hero-pattern</title>
    <desc>Created with Sketch.</desc>
    <defs></defs>
    <g id="Home" stroke="none" stroke-width="1" fill="none" fill-rule="evenodd">
        <g id="Home-–-Desktop-HD" transform="translate(-80.000000, -108.000000)">
            <g id="hero-pattern" transform="translate(80.000000, 108.000000)">
                <g id="Group-4" transform="translate(44.000000, 20.000000)">
                    <rect id="Rectangle-5" fill="#3DF2C2" x="343" y="210" width="32" height="160" rx="2"></rect>
                    <rect id="Rectangle-5" fill="#3792F4" x="1026" y="226" width="32" height="160" rx="2"></rect>
                    <rect id="Rectangle-5" fill="#F4D25D" x="68" y="377" width="160" height="32" rx="2"></rect>
                    <rect id="Rectangle-5" fill="#DCB3F9" x="938" y="461" width="160" height="32" rx="2"></rect>
                    <rect id="Rectangle-5" fill="#5A5AE6" x="644" y="500" width="128" height="28" rx="2"></rect>
                    <rect id="Rectangle-5" fill="#F4D25D" x="769" y="354" width="128" height="12" rx="2"></rect>
                    <rect id="Rectangle-5" fill="#DCEBFD" x="1090" y="250" width="102" height="24" rx="2"></rect>
                    <rect id="Rectangle-5" fill="#3792F4" x="596" y="0" width="128" height="28" rx="2"></rect>
                    <rect id="Rectangle-5" fill="#3DF2C2" x="978" y="138" width="32" height="144" rx="2"></rect>
                    <rect id="Rectangle-5" fill="#3792F4" x="175" y="258" width="24" height="96" rx="2"></rect>
                    <rect id="Rectangle-5" fill="#3DF2C2" x="938" y="322" width="24" height="96" rx="2"></rect>
                    <rect id="Rectangle-3" fill="#DCB3F9" x="260" y="306" width="32" height="128" rx="2"></rect>
                    <rect id="Rectangle-3" fill="#F4D25D" x="889" y="82" width="32" height="128" rx="2"></rect>
                    <rect id="Rectangle-7" fill="#DCEBFD" x="742" y="555" width="48" height="48" rx="2"></rect>
                    <rect id="Rectangle-7" fill="#3792F4" x="390" y="487" width="48" height="48" rx="2"></rect>
                    <rect id="Rectangle-7" fill="#5A5AE6" x="1074" y="142" width="48" height="48" rx="2"></rect>
                    <rect id="Rectangle-7" fill="#3DF2C2" x="0" y="226" width="48" height="48" rx="2"></rect>
                    <rect id="Rectangle-7" fill="#B4B4F3" x="800" y="437" width="48" height="48" rx="2"></rect>
                    <rect id="Rectangle-7" fill="#5A5AE6" x="212" y="449" width="64" height="24" rx="2"></rect>
                    <rect id="Rectangle-7" fill="#F4D25D" x="461" y="559" width="64" height="24" rx="2"></rect>
                    <rect id="Rectangle-5" fill="#3792F4" x="274" y="70" width="24" height="96" rx="2"></rect>
                    <rect id="Rectangle-7" fill="#F4D25D" x="375" y="29" width="48" height="48" rx="2"></rect>
                    <rect id="Rectangle-3" fill="#5A5AE6" x="226" y="50" width="32" height="128" rx="2"></rect>
                    <rect id="Rectangle-7" fill="#B4B4F3" x="218" y="198" width="64" height="24" rx="2"></rect>
                    <rect id="Rectangle-7" fill="#DCB3F9" x="769" y="41" width="64" height="24" rx="2"></rect>
                    <rect id="Rectangle-7" fill="#B4B4F3" transform="translate(414.000000, 403.000000) rotate(90.000000) translate(-414.000000, -403.000000) " x="382" y="395" width="64" height="16" rx="2"></rect>
                    <rect id="Rectangle-7" fill="#DCB3F9" transform="translate(136.000000, 262.000000) rotate(90.000000) translate(-136.000000, -262.000000) " x="104" y="254" width="64" height="16" rx="2"></rect>
                    <rect id="Rectangle-7" fill="#F4D25D" x="1099" y="400" width="64" height="24" rx="2"></rect>
                    <rect id="Rectangle-7" fill="#3DF2C2" x="830" y="519" width="56" height="24" rx="2"></rect>
                    <rect id="Rectangle-7" fill="#5A5AE6" x="817" y="161" width="48" height="96" rx="2"></rect>
                    <circle id="Oval-2" stroke="#2E2F30" stroke-width="4" fill="#FFFFFF" cx="347" cy="428" r="6"></circle>
                    <circle id="Oval-2" stroke="#2E2F30" stroke-width="4" fill="#FFFFFF" cx="257" cy="508" r="6"></circle>
                    <circle id="Oval-2" stroke="#2E2F30" stroke-width="4" fill="#FFFFFF" cx="926" cy="34" r="6"></circle>
                    <circle id="Oval-2" stroke="#2E2F30" stroke-width="4" fill="#FFFFFF" cx="858" cy="322" r="6"></circle>
                    <circle id="Oval-2" stroke="#2E2F30" stroke-width="4" fill="#FFFFFF" cx="905" cy="479" r="6"></circle>
                    <circle id="Oval-2" stroke="#2E2F30" stroke-width="4" fill="#FFFFFF" cx="146" cy="134" r="6"></circle>
                    <circle id="Oval-2" stroke="#2E2F30" stroke-width="4" fill="#FFFFFF" cx="467" cy="20" r="6"></circle>
                </g>
            </g>
        </g>
    </g>
</svg>