<svg xmlns="http://www.w3.org/2000/svg" viewBox="0 0 32 32" width="32" height="32"><title>logo instagram</title><g class="nc-icon-wrapper" fill="#111111"><path d="M16,3.7c4,0,4.479.015,6.061.087a6.426,6.426,0,0,1,4.51,1.639,6.426,6.426,0,0,1,1.639,4.51C28.282,11.521,28.3,12,28.3,16s-.015,4.479-.087,6.061a6.426,6.426,0,0,1-1.639,4.51,6.425,6.425,0,0,1-4.51,1.639c-1.582.072-2.056.087-6.061.087s-4.479-.015-6.061-.087a6.426,6.426,0,0,1-4.51-1.639,6.425,6.425,0,0,1-1.639-4.51C3.718,20.479,3.7,20.005,3.7,16s.015-4.479.087-6.061a6.426,6.426,0,0,1,1.639-4.51A6.426,6.426,0,0,1,9.939,3.79C11.521,3.718,12,3.7,16,3.7M16,1c-4.073,0-4.584.017-6.185.09a8.974,8.974,0,0,0-6.3,2.427,8.971,8.971,0,0,0-2.427,6.3C1.017,11.416,1,11.927,1,16s.017,4.584.09,6.185a8.974,8.974,0,0,0,2.427,6.3,8.971,8.971,0,0,0,6.3,2.427c1.6.073,2.112.09,6.185.09s4.584-.017,6.185-.09a8.974,8.974,0,0,0,6.3-2.427,8.971,8.971,0,0,0,2.427-6.3c.073-1.6.09-2.112.09-6.185s-.017-4.584-.09-6.185a8.974,8.974,0,0,0-2.427-6.3,8.971,8.971,0,0,0-6.3-2.427C20.584,1.017,20.073,1,16,1Z" fill="#111111"/><path data-color="color-2" d="M16,8.3A7.7,7.7,0,1,0,23.7,16,7.7,7.7,0,0,0,16,8.3ZM16,21a5,5,0,1,1,5-5A5,5,0,0,1,16,21Z"/><circle data-color="color-2" cx="24.007" cy="7.993" r="1.8"/></g></svg>