<?xml version="1.0" encoding="UTF-8" standalone="no"?>
<svg
   version="1.1"
   id="svg833"
   width="3508"
   height="4961"
   viewBox="0 0 3508 4961"
   sodipodi:docname="BinaryInstitute_v2.svg"
   inkscape:version="1.1 (c4e8f9e, 2021-05-24)"
   inkscape:export-filename="/Users/waz/Desktop/Documents/BIT/binaryLogo_v2.jpg"
   inkscape:export-xdpi="36.541302"
   inkscape:export-ydpi="36.541302"
   xmlns:inkscape="http://www.inkscape.org/namespaces/inkscape"
   xmlns:sodipodi="http://sodipodi.sourceforge.net/DTD/sodipodi-0.dtd"
   xmlns="http://www.w3.org/2000/svg"
   xmlns:svg="http://www.w3.org/2000/svg"
   xmlns:rdf="http://www.w3.org/1999/02/22-rdf-syntax-ns#"
   xmlns:cc="http://creativecommons.org/ns#"
   xmlns:dc="http://purl.org/dc/elements/1.1/">
  <metadata
     id="metadata839">
    <rdf:RDF>
      <cc:Work
         rdf:about="">
        <dc:format>image/svg+xml</dc:format>
        <dc:type
           rdf:resource="http://purl.org/dc/dcmitype/StillImage" />
      </cc:Work>
    </rdf:RDF>
  </metadata>
  <defs
     id="defs837" />
  <sodipodi:namedview
     pagecolor="#ffffff"
     bordercolor="#666666"
     borderopacity="1"
     objecttolerance="10"
     gridtolerance="10"
     guidetolerance="10"
     inkscape:pageopacity="0"
     inkscape:pageshadow="2"
     inkscape:window-width="1440"
     inkscape:window-height="797"
     id="namedview835"
     showgrid="false"
     showguides="true"
     inkscape:guide-bbox="true"
     inkscape:zoom="0.079999996"
     inkscape:cx="75.000004"
     inkscape:cy="3106.2502"
     inkscape:window-x="0"
     inkscape:window-y="25"
     inkscape:window-maximized="1"
     inkscape:current-layer="g841"
     inkscape:document-rotation="0"
     inkscape:pagecheckerboard="0">
    <sodipodi:guide
       position="1080.7632,3565.8935"
       orientation="0,-1"
       id="guide940" />
    <sodipodi:guide
       position="2147.0866,1955.3009"
       orientation="0,-1"
       id="guide942" />
    <sodipodi:guide
       position="1463.0134,2542.1613"
       orientation="0,-1"
       id="guide3138" />
    <sodipodi:guide
       position="2764.3158,3818.0466"
       orientation="1,0"
       id="guide42" />
    <sodipodi:guide
       position="744.14506,3819.256"
       orientation="1,0"
       id="guide44" />
    <sodipodi:guide
       position="200.71588,2148.702"
       orientation="0,-1"
       id="guide72" />
    <sodipodi:guide
       position="2810.7496,3820.7903"
       orientation="0,-1"
       id="guide1110" />
  </sodipodi:namedview>
  <g
     inkscape:groupmode="layer"
     inkscape:label="Image"
     id="g841">
    <rect
       style="fill:#a10707;fill-opacity:1;stroke:#ffffff;stroke-width:0.377953;stroke-linecap:round;stroke-linejoin:round;paint-order:stroke fill markers"
       id="rect833"
       width="37.795277"
       height="37.795277"
       x="50.452469"
       y="58.541893" />
    <rect
       style="fill:#1f2a45;fill-opacity:1;stroke:#ffffff;stroke-width:0.377953;stroke-linecap:round;stroke-linejoin:round;paint-order:stroke fill markers"
       id="rect833-1"
       width="37.795277"
       height="37.795277"
       x="50.452469"
       y="102.33718" />
    <rect
       style="fill:#182638;fill-opacity:1;stroke:#ffffff;stroke-width:0.377953;stroke-linecap:round;stroke-linejoin:round;paint-order:stroke fill markers"
       id="rect833-9"
       width="37.795277"
       height="37.795277"
       x="50.452469"
       y="148.13246" />
    <rect
       style="fill:#f5f5f5;fill-opacity:1;stroke:#ffffff;stroke-width:0.377953;stroke-linecap:round;stroke-linejoin:round;paint-order:stroke fill markers"
       id="rect833-16"
       width="37.795277"
       height="37.795277"
       x="50.452469"
       y="197.92787" />
    <path
       id="rect888-7"
       style="fill:#a10707;fill-opacity:1;stroke-width:0.713013;stroke-linecap:round;stroke-linejoin:round;paint-order:stroke fill markers"
       d="m 177.93945,516.69531 v 1390.66019 867.8457 37.1992 l 1.81055,27.6738 0.11328,1.0332 0.13281,3.0606 2.14258,24.1211 c 26.97616,298.8645 182.87661,580.514 440.40039,795.625 -1.24857,-0.6942 -2.50289,-1.3758 -3.75,-2.0723 l 7.3711,5.0879 c 67.22471,55.7851 140.6175,106.4652 219.25586,151.4023 l 906.53318,625.9727 2.0508,-1.416 2.0508,1.416 906.5332,-625.9727 c 78.6384,-44.9371 152.0311,-95.6172 219.2558,-151.4023 l 7.3711,-5.0879 c -1.2472,0.6965 -2.5014,1.3781 -3.75,2.0723 257.5238,-215.111 413.4243,-496.7605 440.4004,-795.625 l 2.1426,-24.1211 0.1328,-3.0606 0.1133,-1.0332 1.8105,-27.6738 V 2775.2012 1907.3555 516.69531 h -0.6855 -3150.75 z"
       inkscape:export-filename="/Users/waz/Desktop/Documents/BIT/binaryLogo_v2.png"
       inkscape:export-xdpi="36.541302"
       inkscape:export-ydpi="36.541302" />
    <path
       id="path166"
       style="fill:#f5f5f5;fill-opacity:1;stroke-width:0.713013;stroke-linecap:round;stroke-linejoin:round;paint-order:stroke fill markers"
       d="m 1693.1725,1137.1833 c -174.379,0 -314.7636,140.3845 -314.7636,314.7636 v 1119.7636 c 0,174.3791 140.3846,314.7637 314.7636,314.7637 h 757.4766 c 174.3792,0 314.7637,-140.3846 314.7637,-314.7637 V 1451.9469 c 0,-174.3791 -140.3845,-314.7636 -314.7637,-314.7636 z m 156.0762,315.8457 h 444.9766 c 85.1618,0 153.7207,68.5608 153.7207,153.7226 v 812.8438 c 0,85.1619 -68.5589,153.7226 -153.7207,153.7226 h -444.9766 c -85.1618,0 -153.7226,-68.5607 -153.7226,-153.7226 v -812.8439 c -10e-5,-85.1618 68.5608,-153.7226 153.7226,-153.7225 z"
       inkscape:export-filename="/Users/waz/Desktop/Documents/BIT/binaryLogo_v2.png"
       inkscape:export-xdpi="36.541302"
       inkscape:export-ydpi="36.541302" />
    <path
       style="fill:#f5f5f5;fill-opacity:1;stroke-width:0.713013;stroke-linecap:round;stroke-linejoin:round;paint-order:stroke fill markers"
       d="M 745.70182,1136.818 H 1062.9069 V 2888.7575 H 745.70182 Z"
       id="path164"
       inkscape:export-filename="/Users/waz/Desktop/Documents/BIT/binaryLogo_v2.png"
       inkscape:export-xdpi="36.541302"
       inkscape:export-ydpi="36.541302" />
    <path
       style="fill:#ffffff;fill-opacity:1;stroke:#ffffff;stroke-width:18;stroke-linecap:round;stroke-linejoin:miter;stroke-miterlimit:4;stroke-dasharray:none;paint-order:stroke fill markers"
       d="m 1240.6496,3013.9274 h 60.8449 l 28.6176,28.2647 178.7512,179.8971 21.092,21.0987 v -229.2605 h 39.7728 v 264.8243 h -60.8648 l -28.6172,-28.0448 -178.7516,-179.897 -21.0721,-21.0789 v 229.0211 h -39.7728 z"
       id="path37-3"
       inkscape:export-filename="/Users/waz/Desktop/Documents/BIT/binaryLogo_v2.png"
       inkscape:export-xdpi="36.541302"
       inkscape:export-ydpi="36.541302" />
    <path
       id="path29-3-8-6"
       style="fill:#ffffff;fill-opacity:1;stroke:#ffffff;stroke-width:18;stroke-linecap:round;stroke-linejoin:miter;stroke-miterlimit:4;stroke-dasharray:none;paint-order:stroke fill markers"
       d="m 807.48239,3013.7449 c -2.89318,0 -5.61419,-0.309 -8.20202,0 h -4.50894 -39.77338 v 40.0298 72.9084 39.544 72.9084 38.4068 1.623 h 44.28232 c 2.58783,0.309 5.30884,0 8.20202,0 h 158.49062 c 42.23869,0 76.24399,-33.8088 76.24399,-75.807 0,-22.7442 -16.0252,-43.0297 -31.8778,-56.9019 15.8528,-13.8719 25.8778,-34.1578 25.8778,-56.9018 0,-41.9981 -34.0053,-75.8097 -76.24399,-75.8097 z m -12.53628,40.0298 h 177.5632 c 14.91491,5.1384 25.58571,19.1582 25.58571,35.7799 0,18.362 -13.0008,33.5927 -30.38671,37.1285 H 799.74712 c -1.71008,-0.3478 -3.35868,-0.8452 -4.97569,-1.4112 v -71.4375 c 0.058,-0.021 0.11655,-0.041 0.17468,-0.06 z m 4.81471,112.4524 h 173.93659 c 17.74641,0 30.39759,18.765 30.39759,37.1312 0,16.6186 -10.66688,30.6365 -25.57749,35.7772 h -183.5714 c -0.0587,-0.021 -0.11627,-0.042 -0.17468,-0.063 v -71.4294 c 1.62162,-0.5678 3.27413,-1.0685 4.98939,-1.4166 z"
       sodipodi:nodetypes="sccccccccccssscsssccscccccccsccccscc"
       inkscape:export-filename="/Users/waz/Desktop/Documents/BIT/binaryLogo_v2.png"
       inkscape:export-xdpi="36.541302"
       inkscape:export-ydpi="36.541302" />
    <path
       id="path29-3-8-6-4"
       style="fill:#ffffff;fill-opacity:1;stroke:#ffffff;stroke-width:18;stroke-linecap:round;stroke-linejoin:miter;stroke-miterlimit:4;stroke-dasharray:none;paint-order:stroke fill markers"
       d="m 2349.2479,3279.1021 v -75.807 c 0,-22.7443 -10.0253,-43.0298 -25.8777,-56.9019 15.8526,-13.872 25.8777,-34.1578 25.8777,-56.9019 0,-41.998 -34.0053,-75.8097 -76.2439,-75.8097 h -152.4907 c -2.8931,0 -5.6142,-0.3089 -8.202,0 h -4.5089 -39.7734 v 40.0299 72.9083 39.5441 72.9083 38.4068 1.6231 h 39.7734 v -40.0927 -71.4295 c 0,-1.7182 3.2741,-1.0685 4.9894,-1.4166 v 6e-4 h 167.9365 c 17.3915,3.5314 28.6223,18.7649 28.6223,37.1312 v 75.807 z m -241.2708,-225.3906 h 177.5631 c 14.915,5.1383 23.681,19.1581 23.681,35.7798 0,18.362 -11.096,33.5928 -28.482,37.1285 h -167.9611 c -1.7101,-0.3478 -3.3587,-0.8452 -4.9757,-1.4111 v -71.4376 c 0.059,-0.021 0.116,-0.041 0.1747,-0.06 z m 0,185.3607 c -0.059,-0.021 -0.116,-0.042 -0.1747,-0.063"
       sodipodi:nodetypes="cscssscccccccccccsccscccccscccccccc"
       inkscape:export-filename="/Users/waz/Desktop/Documents/BIT/binaryLogo_v2.png"
       inkscape:export-xdpi="36.541302"
       inkscape:export-ydpi="36.541302" />
    <path
       style="fill:#ffffff;fill-opacity:1;stroke:#ffffff;stroke-width:18;stroke-linecap:round;stroke-linejoin:miter;stroke-miterlimit:4;stroke-dasharray:none;paint-order:stroke fill markers"
       d="m 1121.5501,3013.5873 h 39.7663 v 264.8238 h -39.7663 z"
       id="path25-4"
       inkscape:export-filename="/Users/waz/Desktop/Documents/BIT/binaryLogo_v2.png"
       inkscape:export-xdpi="36.541302"
       inkscape:export-ydpi="36.541302" />
    <path
       d="m 1901.7643,3205.9592 -166.1623,-0.1258 -37.0989,73.5161 h -43.848 l 133.7366,-266.1835 h 58.0986 l 136.4772,266.1835 h -43.3 z m -20.689,-39.6035 -63.0862,-120.4624 -62.112,120.3356 z"
       id="path17234"
       style="font-size:334.669px;line-height:1.25;font-family:MicroSquare;-inkscape-font-specification:'MicroSquare, Normal';fill:#f5f5f5;fill-opacity:1;stroke:#ffffff;stroke-width:18;stroke-miterlimit:4;stroke-dasharray:none;paint-order:stroke fill markers"
       sodipodi:nodetypes="ccccccccccccc"
       inkscape:export-filename="/Users/waz/Desktop/Documents/BIT/binaryLogo_v2.png"
       inkscape:export-xdpi="36.541302"
       inkscape:export-ydpi="36.541302" />
    <path
       d="m 2746.0909,3012.9112 -135.2769,154.8415 v 111.3421 h -40.2612 v -111.3421 l -131.5191,-154.8415 h 46.7028 l 76.7642,89.792 14.494,17.5595 7.5153,8.3805 6.9786,8.7796 8.0523,-8.7796 6.9787,-8.3805 15.0306,-17.5595 76.7644,-89.792 z"
       id="path17238"
       style="font-size:334.669px;line-height:1.25;font-family:MicroSquare;-inkscape-font-specification:'MicroSquare, Normal';fill:#f5f5f5;fill-opacity:1;stroke:#ffffff;stroke-width:18;stroke-miterlimit:4;stroke-dasharray:none;paint-order:stroke fill markers"
       inkscape:export-filename="/Users/waz/Desktop/Documents/BIT/binaryLogo_v2.png"
       inkscape:export-xdpi="36.541302"
       inkscape:export-ydpi="36.541302" />
  </g>
</svg>
